# xmcd
#
# Track frame offsets: 
#        150
#        17375
#        34755
#        47560
#        58832
#        71065
#        83312
#        101495
#        123532
#        141405
#        147370
#        157132
#        171050
#        180752
#        196935
#        207477
#
# Disc length: 2937 seconds
#
# Revision: 0
# Processed by: cddbd v1.5.2PL0 Copyright (c) Steve Scherf et al.
# Submitted via: ExactAudioCopy v1.0b3
#
DISCID=db0b7710
DTITLE=The Moore Square Dixielanders - Big Ed presents
DYEAR=1998
DGENRE=Country
TTITLE0=The Blues My Naughty Sweetie Gave to Me
TTITLE1=Tiger Rag
TTITLE2=I Wish I Was in Peoria
TTITLE3=Down by the Riverside
TTITLE4=Give me a "T" for Texas
TTITLE5=Honeysuckle Rose
TTITLE6=Bill Bailey Won't You Please Come Home
TTITLE7=Just a Closer Walk With Thee
TTITLE8=Five Foot Two, Eyes of Blue
TTITLE9=Tequila
TTITLE10=Zippidy Doo Dah
TTITLE11=Royal Garden Blues
TTITLE12=Tennessee Waltz
TTITLE13=Back Home Again in Indiana
TTITLE14=Sweet Georgia Brown
TTITLE15=When the Saints Go Marching In
EXTD=
EXTT0=
EXTT1=
EXTT2=
EXTT3=
EXTT4=
EXTT5=
EXTT6=
EXTT7=
EXTT8=
EXTT9=
EXTT10=
EXTT11=
EXTT12=
EXTT13=
EXTT14=
EXTT15=
PLAYORDER=
